# xmcd
#
# Track frame offsets:
#  183
#  13270
#  23663
#  35075
#  47448
#  58853
#  74350
#  84398
#  95940
#  105593
#  118385
#  133840
#  148758
#  159075
#  175648
#  191393
#
# Disc length: 2716 seconds
#
# Revision: 3
# Processed by: cddbd v1.5.2PL0 Copyright (c) Steve Scherf et al.
# Submitted via: Collectorz.com_Music_Collector 7.0
#
DISCID=de0a9a10
DTITLE=Diverse Artiesten - Kings Of The Blues [CD2)
DYEAR=1900
DGENRE=General Blues
TTITLE0=James, Elmore - Dust My Broom
TTITLE1=Arnold, Billy Boy - I Wish You Would
TTITLE2=King, Freddie - San-Ho-Zay
TTITLE3=Butler, George "Wild Child"  - Open Up Baby
TTITLE4=Frost, Frank - My Back Scratcher
TTITLE5=Fulson, Lowell - Thug
TTITLE6=Guitar Junior - The Crawl
TTITLE7=Hooker, John Lee - I Love You Honey
TTITLE8=McCain, Jerry - Honky Tonk
TTITLE9=Blue, Little Joe  - Loose Me
TTITLE10=King, Albert - Born Under A Bad Sign
TTITLE11=Otis, Shuggie - Hideaway
TTITLE12=Reed, Jimmy - I Ain'T Got You
TTITLE13=Robinson, Fenton - Somebody Loan Me A Dime
TTITLE14=Taylor, Little Johnny - Part Time Love
TTITLE15=Taylor, Ted - I Need Your Love So Bad
EXTD=
EXTT0=
EXTT1=
EXTT2=
EXTT3=
EXTT4=
EXTT5=
EXTT6=
EXTT7=
EXTT8=
EXTT9=
EXTT10=
EXTT11=
EXTT12=
EXTT13=
EXTT14=
EXTT15=
PLAYORDER=
